# xmcd
#
# Track frame offsets:
#	150
#	25117
#	40045
#	59835
#	77875
#	101592
#	120892
#	133650
#	154392
#	177265
#
# Disc length: 2836 seconds
#
# Revision: 0
# Processed by: cddbd v1.4PL0 Copyright (c) Steve Scherf et al.
# Submitted via: dBpowerAMP V4.0
#
DISCID=7f0b120a
DTITLE=Brian White and Justice - The Least That I Can Do
DYEAR=1995
DGENRE=Country
TTITLE0=The Least That I Can Do
TTITLE1=Where You Lead
TTITLE2=He Will Not Abandon You
TTITLE3=Deep Within My Heart
TTITLE4=I Cry
TTITLE5=Nothing To Loose
TTITLE6=I Wanna Go To Heaven (When I Die)
TTITLE7=To the End of the Age
TTITLE8=Can't Stop Thinking About You
TTITLE9=Reason To Believe
EXTD=Submitted by Gaines Kergosien (freedb@gaines.ods.org)
EXTT0=
EXTT1=
EXTT2=
EXTT3=
EXTT4=
EXTT5=
EXTT6=
EXTT7=
EXTT8=
EXTT9=
PLAYORDER=
